<?xml version="1.0" encoding="UTF-8" standalone="no"?>
<svg xmlns:xlink="http://www.w3.org/1999/xlink" height="30.0px" width="30.0px" xmlns="http://www.w3.org/2000/svg">
  <g transform="matrix(1.0, 0.0, 0.0, 1.0, 15.0, 30.0)">
    <path d="M10.55 -4.4 Q6.2 -0.05 0.0 0.0 L-1.5 -0.05 -1.55 -0.05 Q-5.2 -0.45 -8.2 -2.5 -8.7 -2.75 -9.1 -3.15 L-9.4 -3.35 -10.6 -4.45 Q-14.1 -8.25 -14.7 -12.05 L-15.0 -15.0 Q-15.0 -21.25 -10.6 -25.65 -6.25 -30.0 -0.1 -30.0 6.15 -30.0 10.55 -25.65 L11.55 -24.55 11.55 -24.5 Q15.0 -20.45 15.0 -14.95 14.95 -8.8 10.55 -4.4" fill="#ffffff" fill-rule="evenodd" stroke="none"/>
    <path d="M11.6 -9.8 Q10.65 -7.7 8.85 -5.9 5.05 -2.1 -0.25 -2.1 -5.55 -2.1 -9.3 -5.9 -10.55 -7.15 -11.45 -8.55 -13.1 -11.4 -13.1 -14.95 -13.1 -20.3 -9.3 -24.1 -5.55 -27.85 -0.25 -27.85 5.05 -27.85 8.85 -24.1 12.6 -20.3 12.6 -14.95 12.6 -12.2 11.6 -9.8" fill="url(#gradient0)" fill-rule="evenodd" stroke="none"/>
    <path d="M10.2 -16.65 Q10.4 -14.3 9.0 -12.55 7.7 -11.05 0.0 -4.5 -7.7 -11.1 -8.95 -12.55 -10.35 -14.3 -10.15 -16.65 -9.95 -19.0 -8.4 -20.55 -6.8 -22.05 -4.75 -22.05 -2.75 -22.05 -1.35 -20.55 -0.3 -19.45 0.0 -17.95 0.3 -19.45 1.4 -20.55 2.8 -22.05 4.8 -22.05 6.85 -22.05 8.45 -20.55 10.0 -19.0 10.2 -16.65" fill="#ffffff" fill-rule="evenodd" stroke="none"/>
  </g>
  <defs>
    <radialGradient cx="0" cy="0" gradientTransform="matrix(0.0206, 0.0, 0.0, 0.0206, -0.25, -14.95)" gradientUnits="userSpaceOnUse" id="gradient0" r="819.2" spreadMethod="pad">
      <stop offset="0.3607843137254902" stop-color="#ff99cc"/>
      <stop offset="1.0" stop-color="#cc0099"/>
    </radialGradient>
  </defs>
</svg>
