<?xml version="1.0" encoding="UTF-8" standalone="no"?>
<svg xmlns:xlink="http://www.w3.org/1999/xlink" height="30.0px" width="30.0px" xmlns="http://www.w3.org/2000/svg">
  <g transform="matrix(1.0, 0.0, 0.0, 1.0, 15.0, 30.0)">
    <path d="M10.55 -4.4 Q6.2 -0.05 0.0 0.0 L-1.5 -0.05 -1.55 -0.05 Q-5.2 -0.45 -8.2 -2.5 -8.7 -2.75 -9.1 -3.15 L-9.4 -3.35 -10.6 -4.45 Q-14.1 -8.25 -14.7 -12.05 L-15.0 -15.0 Q-15.0 -21.25 -10.6 -25.65 -6.25 -30.0 -0.1 -30.0 6.15 -30.0 10.55 -25.65 L11.55 -24.55 11.55 -24.5 Q15.0 -20.45 15.0 -14.95 14.95 -8.8 10.55 -4.4" fill="#ffffff" fill-rule="evenodd" stroke="none"/>
    <path d="M11.6 -9.8 Q10.65 -7.7 8.85 -5.9 5.05 -2.1 -0.25 -2.1 -5.55 -2.1 -9.3 -5.9 -10.55 -7.15 -11.45 -8.55 -13.1 -11.4 -13.1 -14.95 -13.1 -20.3 -9.3 -24.1 -5.55 -27.85 -0.25 -27.85 5.05 -27.85 8.85 -24.1 12.6 -20.3 12.6 -14.95 12.6 -12.2 11.6 -9.8" fill="url(#gradient0)" fill-rule="evenodd" stroke="none"/>
    <path d="M4.1 -22.1 Q4.65 -22.6 5.55 -22.95 5.25 -22.25 5.3 -21.65 5.3 -20.85 5.95 -20.15 L7.0 -19.05 Q9.0 -16.7 9.2 -13.55 L9.15 -12.9 9.15 -12.85 Q8.85 -9.2 5.65 -8.45 2.0 -8.25 0.75 -11.15 -0.2 -13.25 -0.4 -15.4 -0.75 -12.75 -1.6 -11.15 -2.7 -8.75 -5.35 -8.45 L-6.45 -8.45 Q-9.65 -9.2 -10.0 -12.8 L-10.0 -12.85 -10.1 -13.55 Q-9.9 -16.7 -7.85 -19.05 L-6.85 -20.15 Q-5.75 -21.4 -6.45 -22.95 -5.55 -22.6 -5.0 -22.1 L-4.8 -21.65 Q-4.4 -20.15 -5.35 -18.45 L-5.45 -18.35 Q-7.0 -16.45 -7.0 -13.9 -6.9 -11.7 -5.35 -10.7 L-4.8 -10.35 -5.35 -11.5 Q-6.4 -14.0 -5.35 -16.2 L-4.45 -17.7 Q-2.2 -19.4 -1.35 -21.65 L-1.35 -21.7 -1.1 -22.55 Q-0.6 -24.6 -0.55 -26.6 L-0.4 -27.15 -0.35 -26.6 Q-0.25 -24.6 0.25 -22.55 L0.45 -21.7 0.5 -21.65 Q1.35 -19.4 3.55 -17.7 6.25 -14.4 3.95 -10.35 6.0 -11.3 6.1 -13.9 6.1 -16.45 4.55 -18.35 3.5 -20.1 3.95 -21.65 L4.1 -22.1" fill="#ffffff" fill-rule="evenodd" stroke="none"/>
    <path d="M9.15 -12.85 L9.2 -12.85 9.25 -12.8 Q9.25 -8.8 6.4 -5.95 4.05 -3.6 0.85 -3.2 L-0.15 -3.15 -0.55 -3.15 Q-3.25 -3.15 -5.35 -4.45 L-7.3 -5.95 Q-10.1 -8.8 -10.1 -12.8 L-10.0 -12.8 Q-9.65 -9.2 -6.45 -8.45 L-5.35 -8.45 Q-2.7 -8.75 -1.6 -11.15 -0.75 -12.75 -0.4 -15.4 -0.2 -13.25 0.75 -11.15 2.0 -8.25 5.65 -8.45 8.85 -9.2 9.15 -12.85 M-5.0 -22.1 L-4.6 -21.65 -4.6 -21.6 Q-4.05 -20.95 -4.0 -20.15 -3.85 -19.1 -4.45 -17.7 L-5.35 -16.2 Q-6.4 -14.0 -5.35 -11.5 L-4.8 -10.35 -5.35 -10.7 Q-6.9 -11.7 -7.0 -13.9 -7.0 -16.45 -5.45 -18.35 L-5.35 -18.45 Q-4.4 -20.15 -4.8 -21.65 L-5.0 -22.1 M3.55 -17.7 Q2.95 -19.1 3.1 -20.15 3.2 -20.95 3.7 -21.6 L3.75 -21.65 4.1 -22.1 3.95 -21.65 Q3.5 -20.1 4.55 -18.35 6.1 -16.45 6.1 -13.9 6.0 -11.3 3.95 -10.35 6.25 -14.4 3.55 -17.7" fill="#ffffff" fill-opacity="0.7019608" fill-rule="evenodd" stroke="none"/>
    <path d="M9.2 -12.85 L9.25 -12.9 9.25 -12.8 9.2 -12.85" fill="url(#gradient1)" fill-rule="evenodd" stroke="none"/>
  </g>
  <defs>
    <radialGradient cx="0" cy="0" gradientTransform="matrix(0.0206, 0.0, 0.0, 0.0206, -0.25, -14.95)" gradientUnits="userSpaceOnUse" id="gradient0" r="819.2" spreadMethod="pad">
      <stop offset="0.3607843137254902" stop-color="#ffb908"/>
      <stop offset="1.0" stop-color="#d10e0e"/>
      <stop offset="1.0" stop-color="#c70e0e"/>
    </radialGradient>
    <radialGradient cx="0" cy="0" gradientTransform="matrix(0.0192, 0.0, 0.0, 0.0151, 2.6, -16.0)" gradientUnits="userSpaceOnUse" id="gradient1" r="819.2" spreadMethod="pad">
      <stop offset="0.4470588235294118" stop-color="#f18e00"/>
      <stop offset="0.9490196078431372" stop-color="#e45112"/>
    </radialGradient>
  </defs>
</svg>
