<?xml version="1.0" encoding="UTF-8" standalone="no"?>
<svg xmlns:xlink="http://www.w3.org/1999/xlink" height="30.0px" width="30.0px" xmlns="http://www.w3.org/2000/svg">
  <g transform="matrix(1.0, 0.0, 0.0, 1.0, 15.0, 30.0)">
    <path d="M10.55 -4.4 Q6.2 -0.05 0.0 0.0 L-1.5 -0.05 -1.55 -0.05 Q-5.2 -0.45 -8.2 -2.5 -8.7 -2.75 -9.1 -3.15 L-9.4 -3.35 -10.6 -4.45 Q-14.1 -8.25 -14.7 -12.05 L-15.0 -15.0 Q-15.0 -21.25 -10.6 -25.65 -6.25 -30.0 -0.1 -30.0 6.15 -30.0 10.55 -25.65 L11.55 -24.55 11.55 -24.5 Q15.0 -20.45 15.0 -14.95 14.95 -8.8 10.55 -4.4" fill="#ffffff" fill-rule="evenodd" stroke="none"/>
    <path d="M8.85 -5.9 Q5.05 -2.1 -0.25 -2.1 -5.55 -2.1 -9.3 -5.9 -10.55 -7.15 -11.45 -8.55 -13.1 -11.4 -13.1 -14.95 -13.1 -20.3 -9.3 -24.1 -5.55 -27.85 -0.25 -27.85 5.05 -27.85 8.85 -24.1 12.6 -20.3 12.6 -14.95 12.6 -12.2 11.6 -9.8 10.65 -7.7 8.85 -5.9" fill="url(#gradient0)" fill-rule="evenodd" stroke="none"/>
    <path d="M3.4 -14.7 L3.4 -15.15 Q3.3 -16.35 2.3 -17.25 L2.3 -17.3 1.45 -17.95 1.4 -18.0 -0.3 -18.4 -2.05 -17.95 -2.85 -17.3 -2.9 -17.25 Q-3.85 -16.35 -3.95 -15.15 L-4.0 -14.7 -3.95 -14.2 -3.9 -13.95 -3.65 -13.05 -2.9 -12.1 -2.5 -11.7 Q-1.7 -11.1 -0.75 -11.0 L-0.3 -11.0 0.2 -11.0 Q1.4 -11.1 2.3 -12.1 L3.05 -13.05 3.35 -13.95 3.4 -14.2 3.4 -14.7 M5.45 -19.65 L8.15 -19.65 Q9.0 -18.05 9.35 -16.25 L9.4 -15.5 7.25 -13.9 7.15 -13.2 6.6 -11.4 6.4 -11.1 6.2 -10.8 7.0 -8.25 6.85 -8.0 6.6 -7.75 Q5.2 -6.4 3.55 -5.7 L1.3 -7.25 0.6 -7.15 -0.3 -7.1 -1.15 -7.15 -1.9 -7.25 -4.15 -5.6 -4.75 -5.9 Q-6.1 -6.65 -7.25 -7.75 L-7.45 -7.95 -7.7 -8.2 -6.85 -10.8 -6.95 -11.1 -7.15 -11.4 -7.75 -13.2 -7.8 -13.85 -10.05 -15.55 -10.0 -16.3 Q-9.7 -18.1 -8.8 -19.65 L-6.05 -19.65 -5.6 -20.0 -5.55 -20.15 -3.9 -21.35 -3.3 -21.65 -2.45 -24.25 -0.3 -24.45 1.9 -24.2 2.7 -21.65 3.15 -21.45 3.3 -21.35 4.95 -20.15 5.05 -20.0 5.45 -19.65" fill="#ffffff" fill-rule="evenodd" stroke="none"/>
  </g>
  <defs>
    <radialGradient cx="0" cy="0" gradientTransform="matrix(0.0206, 0.0, 0.0, 0.0206, -0.25, -14.95)" gradientUnits="userSpaceOnUse" id="gradient0" r="819.2" spreadMethod="pad">
      <stop offset="0.3607843137254902" stop-color="#ff99cc"/>
      <stop offset="1.0" stop-color="#660066"/>
    </radialGradient>
  </defs>
</svg>
