<?xml version="1.0" encoding="UTF-8" standalone="no"?>
<svg xmlns:xlink="http://www.w3.org/1999/xlink" height="30.0px" width="30.0px" xmlns="http://www.w3.org/2000/svg">
  <g transform="matrix(1.0, 0.0, 0.0, 1.0, 15.0, 30.0)">
    <path d="M11.55 -24.55 L11.55 -24.5 Q15.0 -20.45 15.0 -14.95 14.95 -8.8 10.55 -4.4 6.2 -0.05 0.0 0.0 L-1.5 -0.05 -1.55 -0.05 Q-5.2 -0.45 -8.2 -2.5 -8.7 -2.75 -9.1 -3.15 L-9.4 -3.35 -10.6 -4.45 Q-14.1 -8.25 -14.7 -12.05 L-15.0 -15.0 Q-15.0 -21.25 -10.6 -25.65 -6.25 -30.0 -0.1 -30.0 6.15 -30.0 10.55 -25.65 L11.55 -24.55" fill="#ffffff" fill-rule="evenodd" stroke="none"/>
    <path d="M11.6 -9.8 Q10.65 -7.7 8.85 -5.9 5.05 -2.1 -0.25 -2.1 -5.55 -2.1 -9.3 -5.9 -10.55 -7.15 -11.45 -8.55 -13.1 -11.4 -13.1 -14.95 -13.1 -20.3 -9.3 -24.1 -5.55 -27.85 -0.25 -27.85 5.05 -27.85 8.85 -24.1 12.6 -20.3 12.6 -14.95 12.6 -12.2 11.6 -9.8" fill="url(#gradient0)" fill-rule="evenodd" stroke="none"/>
    <path d="M1.1 -23.85 L1.1 -20.9 3.9 -20.9 4.1 -16.7 3.05 -16.7 2.8 -19.1 1.8 -19.1 1.8 -13.55 Q4.05 -13.3 5.75 -12.55 8.35 -11.6 8.4 -10.05 8.4 -9.35 7.7 -8.7 L6.0 -7.6 5.85 -7.55 5.8 -7.45 3.6 -6.8 1.85 -6.5 -0.25 -6.4 -3.7 -6.6 -5.45 -7.05 -6.55 -7.4 Q-7.6 -7.85 -8.2 -8.35 L-8.95 -9.5 -9.0 -9.8 -9.0 -9.95 -8.95 -10.3 Q-8.7 -11.6 -6.5 -12.45 L-5.35 -12.8 -4.8 -13.0 -4.6 -13.05 -2.75 -13.4 -2.75 -19.1 -3.8 -19.1 -4.0 -16.7 -5.1 -16.7 -4.85 -20.9 -2.1 -20.9 -2.1 -23.85 -3.2 -23.85 -3.2 -26.3 2.25 -26.3 2.25 -23.85 1.1 -23.85 M6.05 -7.0 L6.1 -7.0 6.2 -7.1 Q7.25 -7.6 8.1 -8.3 L8.1 -8.35 8.05 -8.35 8.3 -8.7 8.4 -7.75 Q8.35 -6.35 5.75 -5.25 4.05 -4.5 1.75 -4.3 L0.2 -4.2 -0.15 -4.15 -0.35 -4.2 -1.4 -4.15 Q-4.4 -4.25 -6.55 -5.15 -8.75 -6.05 -9.0 -7.25 L-9.1 -7.6 -9.05 -8.4 -8.55 -7.9 Q-7.9 -7.4 -6.7 -6.95 -5.6 -6.45 -4.25 -6.2 L-2.7 -5.9 -0.3 -5.85 1.5 -5.95 3.15 -6.2 6.0 -7.0 6.05 -7.0 M1.8 -12.1 L1.8 -11.5 -0.5 -8.3 -2.75 -11.5 -2.75 -12.0 -3.05 -11.95 -3.15 -11.9 -3.5 -11.75 -4.25 -11.55 Q-5.65 -11.0 -5.8 -10.15 L-5.85 -9.95 -5.85 -9.85 -5.8 -9.65 -5.35 -8.95 Q-4.95 -8.6 -4.25 -8.3 L-3.55 -8.1 -2.45 -7.8 -0.25 -7.7 1.1 -7.75 2.2 -7.95 3.65 -8.35 3.65 -8.4 3.75 -8.45 4.85 -9.15 5.3 -10.0 Q5.25 -11.0 3.6 -11.6 L1.8 -12.1" fill="#ffffff" fill-rule="evenodd" stroke="none"/>
  </g>
  <defs>
    <radialGradient cx="0" cy="0" gradientTransform="matrix(0.0206, 0.0, 0.0, 0.0206, -0.25, -14.95)" gradientUnits="userSpaceOnUse" id="gradient0" r="819.2" spreadMethod="pad">
      <stop offset="0.3607843137254902" stop-color="#ffb908"/>
      <stop offset="1.0" stop-color="#d10e0e"/>
      <stop offset="1.0" stop-color="#c70e0e"/>
    </radialGradient>
  </defs>
</svg>
