<?xml version="1.0" encoding="UTF-8" standalone="no"?>
<svg xmlns:xlink="http://www.w3.org/1999/xlink" height="30.0px" width="30.0px" xmlns="http://www.w3.org/2000/svg">
  <g transform="matrix(1.0, 0.0, 0.0, 1.0, 15.0, 30.0)">
    <path d="M11.55 -24.55 L11.55 -24.5 Q15.0 -20.45 15.0 -14.95 14.95 -8.8 10.55 -4.4 6.2 -0.05 0.0 0.0 L-1.5 -0.05 -1.55 -0.05 Q-5.2 -0.45 -8.2 -2.5 -8.7 -2.75 -9.1 -3.15 L-9.4 -3.35 -10.6 -4.45 Q-14.1 -8.25 -14.7 -12.05 L-15.0 -15.0 Q-15.0 -21.25 -10.6 -25.65 -6.25 -30.0 -0.1 -30.0 6.15 -30.0 10.55 -25.65 L11.55 -24.55" fill="#ffffff" fill-rule="evenodd" stroke="none"/>
    <path d="M8.85 -5.9 Q5.05 -2.1 -0.25 -2.1 -5.55 -2.1 -9.3 -5.9 -10.55 -7.15 -11.45 -8.55 -13.1 -11.4 -13.1 -14.95 -13.1 -20.3 -9.3 -24.1 -5.55 -27.85 -0.25 -27.85 5.05 -27.85 8.85 -24.1 12.6 -20.3 12.6 -14.95 12.6 -12.2 11.6 -9.8 10.65 -7.7 8.85 -5.9" fill="url(#gradient0)" fill-rule="evenodd" stroke="none"/>
    <path d="M12.7 -12.55 L11.0 -7.7 Q10.1 -5.45 3.85 -1.95 L3.0 -1.45 -5.2 -1.5 -5.45 -1.75 Q-10.25 -5.55 -11.55 -7.2 -12.2 -7.95 -12.65 -9.5 L-13.3 -11.5 Q-12.6 -12.9 -10.85 -13.45 L-11.0 -14.05 -11.0 -14.95 Q-11.0 -16.75 -9.5 -17.9 -8.3 -18.85 -7.05 -18.85 -5.95 -18.85 -5.95 -17.4 L-6.05 -16.4 Q-6.15 -16.15 -7.1 -15.75 L-7.1 -15.65 Q-6.65 -15.5 -6.0 -16.2 -5.35 -16.85 -5.4 -17.6 -5.45 -18.25 -6.05 -18.9 -6.65 -19.55 -7.5 -19.4 L-7.5 -20.8 Q-7.1 -21.95 -6.1 -22.6 -5.15 -23.25 -4.0 -23.25 -2.2 -23.25 -2.2 -21.0 -2.2 -20.6 -2.55 -20.0 -1.7 -20.4 -0.75 -19.55 0.25 -18.65 0.0 -17.55 L0.1 -17.55 Q0.2 -18.15 0.95 -18.7 1.75 -19.25 2.5 -19.1 0.95 -19.9 0.65 -20.25 0.35 -20.75 0.35 -22.15 0.35 -23.9 1.7 -24.65 2.7 -25.2 4.55 -25.2 5.95 -25.2 6.65 -24.6 7.45 -23.8 7.45 -22.05 7.45 -20.8 7.0 -20.2 6.5 -19.6 5.85 -19.65 5.25 -19.7 5.05 -19.9 4.9 -19.55 5.25 -19.25 5.55 -18.95 6.2 -18.95 6.8 -18.95 7.0 -19.85 9.1 -19.05 9.35 -17.85 9.55 -16.6 9.2 -15.8 8.7 -14.9 8.05 -14.9 L7.85 -14.75 10.45 -14.9 Q11.7 -14.6 12.25 -13.45 L12.7 -12.55 M1.5 -12.4 Q1.95 -12.4 2.6 -11.85 L2.75 -11.85 3.35 -11.3 3.5 -11.15 3.6 -10.2 3.4 -9.1 2.15 -8.9 1.7 -8.9 1.05 -8.85 0.65 -8.85 Q0.3 -8.95 0.0 -9.45 -0.2 -10.1 0.0 -10.95 L0.0 -11.15 Q0.45 -12.4 0.9 -12.4 L1.5 -12.4 M0.4 -6.6 L-0.4 -6.9 -1.2 -6.6 -0.75 -8.1 0.0 -8.1 0.4 -6.6 M4.75 -7.85 L4.75 -8.6 3.95 -8.95 4.7 -10.45 Q5.0 -11.85 4.55 -12.8 3.7 -15.05 -0.5 -15.1 L-1.8 -15.0 Q-4.3 -14.65 -5.2 -13.4 L-5.55 -12.65 Q-5.85 -11.7 -5.6 -10.45 L-4.9 -8.9 -5.65 -8.6 -5.65 -7.85 -5.0 -7.5 Q-4.4 -7.8 -3.75 -7.5 -4.8 -6.75 -4.95 -5.9 -4.6 -5.4 -4.0 -5.25 L-3.6 -5.1 -3.15 -5.1 Q-1.95 -6.15 -1.65 -5.9 L-1.65 -5.75 Q-1.5 -5.6 -1.5 -5.1 L-0.5 -4.9 0.6 -5.1 Q0.4 -6.5 1.7 -5.5 L2.2 -5.1 2.55 -5.1 Q3.6 -5.15 4.0 -5.9 3.85 -6.75 2.8 -7.5 3.4 -7.8 4.05 -7.5 L4.75 -7.85 M-2.0 -12.4 L-1.5 -12.4 -1.0 -11.95 -0.65 -11.15 -0.65 -10.95 Q-0.35 -10.1 -0.65 -9.45 -0.8 -8.95 -1.2 -8.85 L-2.65 -8.9 -3.3 -8.95 -4.0 -9.1 -4.15 -10.2 Q-4.3 -11.05 -4.1 -11.15 L-3.15 -11.85 Q-2.5 -12.4 -2.0 -12.4" fill="#ffffff" fill-rule="evenodd" stroke="none"/>
  </g>
  <defs>
    <radialGradient cx="0" cy="0" gradientTransform="matrix(0.0206, 0.0, 0.0, 0.0206, -0.25, -14.95)" gradientUnits="userSpaceOnUse" id="gradient0" r="819.2" spreadMethod="pad">
      <stop offset="0.3607843137254902" stop-color="#b8d416"/>
      <stop offset="1.0" stop-color="#256c0e"/>
    </radialGradient>
  </defs>
</svg>
