<?xml version="1.0" encoding="UTF-8" standalone="no"?>
<svg xmlns:xlink="http://www.w3.org/1999/xlink" height="30.0px" width="30.0px" xmlns="http://www.w3.org/2000/svg">
  <g transform="matrix(1.0, 0.0, 0.0, 1.0, 15.0, 30.0)">
    <path d="M10.55 -4.4 Q6.2 -0.05 0.0 0.0 L-1.5 -0.05 -1.55 -0.05 Q-5.2 -0.45 -8.2 -2.5 -8.7 -2.75 -9.1 -3.15 L-9.4 -3.35 -10.6 -4.45 Q-14.1 -8.25 -14.7 -12.05 L-15.0 -15.0 Q-15.0 -21.25 -10.6 -25.65 -6.25 -30.0 -0.1 -30.0 6.15 -30.0 10.55 -25.65 L11.55 -24.55 11.55 -24.5 Q15.0 -20.45 15.0 -14.95 14.95 -8.8 10.55 -4.4" fill="#ffffff" fill-rule="evenodd" stroke="none"/>
    <path d="M11.6 -9.8 Q10.65 -7.7 8.85 -5.9 5.05 -2.1 -0.25 -2.1 -5.55 -2.1 -9.3 -5.9 -10.55 -7.15 -11.45 -8.55 -13.1 -11.4 -13.1 -14.95 -13.1 -20.3 -9.3 -24.1 -5.55 -27.85 -0.25 -27.85 5.05 -27.85 8.85 -24.1 12.6 -20.3 12.6 -14.95 12.6 -12.2 11.6 -9.8" fill="url(#gradient0)" fill-rule="evenodd" stroke="none"/>
    <path d="M-2.3 -22.5 Q-1.8 -21.95 -1.8 -20.9 L-1.8 -8.75 Q-1.8 -7.7 -2.3 -7.15 -2.8 -6.65 -3.6 -6.65 -4.4 -6.65 -4.9 -7.15 -5.4 -7.7 -5.4 -8.75 L-5.4 -20.9 Q-5.4 -21.95 -4.9 -22.5 -4.4 -23.05 -3.6 -23.05 -2.8 -23.05 -2.3 -22.5" fill="#ffffff" fill-rule="evenodd" stroke="none"/>
    <path d="M4.2 -22.5 Q4.7 -21.95 4.7 -20.9 L4.7 -8.75 Q4.7 -7.7 4.2 -7.15 3.7 -6.65 2.9 -6.65 2.1 -6.65 1.6 -7.15 1.1 -7.7 1.1 -8.75 L1.1 -20.9 Q1.1 -21.95 1.6 -22.5 2.1 -23.05 2.9 -23.05 3.7 -23.05 4.2 -22.5" fill="#ffffff" fill-rule="evenodd" stroke="none"/>
  </g>
  <defs>
    <radialGradient cx="0" cy="0" gradientTransform="matrix(0.0206, 0.0, 0.0, 0.0206, -0.25, -14.95)" gradientUnits="userSpaceOnUse" id="gradient0" r="819.2" spreadMethod="pad">
      <stop offset="0.3607843137254902" stop-color="#999999"/>
      <stop offset="1.0" stop-color="#333333"/>
    </radialGradient>
  </defs>
</svg>
