<?xml version="1.0" encoding="UTF-8" standalone="no"?>
<svg xmlns:xlink="http://www.w3.org/1999/xlink" height="30.0px" width="30.0px" xmlns="http://www.w3.org/2000/svg">
  <g transform="matrix(1.0, 0.0, 0.0, 1.0, 15.0, 30.0)">
    <path d="M11.55 -24.55 L11.55 -24.5 Q15.0 -20.45 15.0 -14.95 14.95 -8.8 10.55 -4.4 6.2 -0.05 0.0 0.0 L-1.5 -0.05 -1.55 -0.05 Q-5.2 -0.45 -8.2 -2.5 -8.7 -2.75 -9.1 -3.15 L-9.4 -3.35 -10.6 -4.45 Q-14.1 -8.25 -14.7 -12.05 L-15.0 -15.0 Q-15.0 -21.25 -10.6 -25.65 -6.25 -30.0 -0.1 -30.0 6.15 -30.0 10.55 -25.65 L11.55 -24.55" fill="#ffffff" fill-rule="evenodd" stroke="none"/>
    <path d="M8.85 -5.9 Q5.05 -2.1 -0.25 -2.1 -5.55 -2.1 -9.3 -5.9 -10.55 -7.15 -11.45 -8.55 -13.1 -11.4 -13.1 -14.95 -13.1 -20.3 -9.3 -24.1 -5.55 -27.85 -0.25 -27.85 5.05 -27.85 8.85 -24.1 12.6 -20.3 12.6 -14.95 12.6 -12.2 11.6 -9.8 10.65 -7.7 8.85 -5.9" fill="url(#gradient0)" fill-rule="evenodd" stroke="none"/>
    <path d="M-4.8 -20.9 L-4.8 -8.75 Q-4.8 -7.7 -5.3 -7.15 -5.8 -6.65 -6.6 -6.65 -7.4 -6.65 -7.9 -7.15 -8.4 -7.7 -8.4 -8.75 L-8.4 -20.9 Q-8.4 -21.95 -7.9 -22.5 -7.4 -23.05 -6.6 -23.05 -5.8 -23.05 -5.3 -22.5 -4.8 -21.95 -4.8 -20.9" fill="#ffffff" fill-rule="evenodd" stroke="none"/>
    <path d="M1.7 -20.9 L1.7 -8.75 Q1.7 -7.7 1.2 -7.15 0.7 -6.65 -0.1 -6.65 -0.9 -6.65 -1.4 -7.15 -1.9 -7.7 -1.9 -8.75 L-1.9 -20.9 Q-1.9 -21.95 -1.4 -22.5 -0.9 -23.05 -0.1 -23.05 0.7 -23.05 1.2 -22.5 1.7 -21.95 1.7 -20.9" fill="#ffffff" fill-rule="evenodd" stroke="none"/>
    <path d="M8.2 -20.9 L8.2 -8.75 Q8.2 -7.7 7.7 -7.15 7.2 -6.65 6.4 -6.65 5.6 -6.65 5.1 -7.15 4.6 -7.7 4.6 -8.75 L4.6 -20.9 Q4.6 -21.95 5.1 -22.5 5.6 -23.05 6.4 -23.05 7.2 -23.05 7.7 -22.5 8.2 -21.95 8.2 -20.9" fill="#ffffff" fill-rule="evenodd" stroke="none"/>
  </g>
  <defs>
    <radialGradient cx="0" cy="0" gradientTransform="matrix(0.0206, 0.0, 0.0, 0.0206, -0.25, -14.95)" gradientUnits="userSpaceOnUse" id="gradient0" r="819.2" spreadMethod="pad">
      <stop offset="0.3607843137254902" stop-color="#999999"/>
      <stop offset="1.0" stop-color="#333333"/>
    </radialGradient>
  </defs>
</svg>
