<?xml version="1.0" encoding="UTF-8" standalone="no"?>
<svg xmlns:xlink="http://www.w3.org/1999/xlink" height="30.0px" width="30.0px" xmlns="http://www.w3.org/2000/svg">
  <g transform="matrix(1.0, 0.0, 0.0, 1.0, 15.0, 30.0)">
    <path d="M10.55 -4.4 Q6.2 -0.05 0.0 0.0 L-1.5 -0.05 -1.55 -0.05 Q-5.2 -0.45 -8.2 -2.5 -8.7 -2.75 -9.1 -3.15 L-9.4 -3.35 -10.6 -4.45 Q-14.1 -8.25 -14.7 -12.05 L-15.0 -15.0 Q-15.0 -21.25 -10.6 -25.65 -6.25 -30.0 -0.1 -30.0 6.15 -30.0 10.55 -25.65 L11.55 -24.55 11.55 -24.5 Q15.0 -20.45 15.0 -14.95 14.95 -8.8 10.55 -4.4" fill="#ffffff" fill-rule="evenodd" stroke="none"/>
    <path d="M12.6 -14.95 Q12.6 -12.2 11.6 -9.8 10.65 -7.7 8.85 -5.9 5.05 -2.1 -0.25 -2.1 -5.55 -2.1 -9.3 -5.9 -10.55 -7.15 -11.45 -8.55 -13.1 -11.4 -13.1 -14.95 -13.1 -20.3 -9.3 -24.1 -5.55 -27.85 -0.25 -27.85 5.05 -27.85 8.85 -24.1 12.6 -20.3 12.6 -14.95" fill="url(#gradient0)" fill-rule="evenodd" stroke="none"/>
    <path d="M-6.1 -18.85 L-3.65 -21.05 -3.2 -21.45 Q-1.0 -23.85 -0.4 -26.45 L-0.3 -26.75 -0.1 -26.15 0.65 -24.4 Q1.85 -21.95 4.6 -19.65 L5.6 -18.85 6.0 -18.5 7.3 -16.85 8.2 -14.9 8.2 -14.85 Q8.55 -13.65 8.55 -12.25 L8.55 -12.2 Q8.55 -10.4 7.9 -8.8 L7.3 -7.5 Q5.8 -4.85 2.5 -3.8 L-0.3 -3.4 Q-4.0 -3.4 -6.6 -5.95 -9.15 -8.55 -9.15 -12.2 -9.15 -14.05 -8.5 -15.6 L-6.6 -18.45 -6.55 -18.45 -6.15 -18.8 -6.1 -18.85 M3.95 -18.55 L3.85 -18.5 3.9 -18.45 3.95 -18.55 M0.1 -16.9 Q1.65 -16.9 2.75 -15.8 3.8 -14.65 3.8 -13.15 3.8 -11.55 2.95 -10.6 2.0 -9.65 1.1 -9.4 L-0.65 -9.25 Q-2.35 -9.3 -3.7 -10.8 -6.1 -14.25 -3.1 -17.8 -0.85 -20.45 -0.65 -24.0 L-1.05 -23.35 Q-1.7 -21.85 -2.6 -20.75 L-4.45 -18.6 -4.8 -18.3 Q-6.6 -16.45 -6.6 -13.8 -6.6 -11.2 -4.8 -9.4 -2.95 -7.55 -0.3 -7.55 2.3 -7.55 4.15 -9.4 6.0 -11.2 6.0 -13.8 L5.95 -14.75 Q5.6 -15.85 4.85 -16.6 3.4 -18.0 1.35 -18.0 -0.7 -18.0 -2.2 -16.6 -3.2 -15.55 -3.5 -14.2 L-2.55 -15.8 Q-1.45 -16.9 0.1 -16.9" fill="#ffffff" fill-rule="evenodd" stroke="none"/>
    <path d="M3.95 -18.55 L3.9 -18.45 3.85 -18.5 3.95 -18.55" fill="url(#gradient1)" fill-rule="evenodd" stroke="none"/>
    <path d="M0.1 -16.9 Q-1.45 -16.9 -2.55 -15.8 L-3.5 -14.2 Q-3.2 -15.55 -2.2 -16.6 -0.7 -18.0 1.35 -18.0 3.4 -18.0 4.85 -16.6 5.6 -15.85 5.95 -14.75 L6.0 -13.8 Q6.0 -11.2 4.15 -9.4 2.3 -7.55 -0.3 -7.55 -2.95 -7.55 -4.8 -9.4 -6.6 -11.2 -6.6 -13.8 -6.6 -16.45 -4.8 -18.3 L-4.45 -18.6 -2.6 -20.75 Q-1.7 -21.85 -1.05 -23.35 L-0.65 -24.0 Q-0.85 -20.45 -3.1 -17.8 -6.1 -14.25 -3.7 -10.8 -2.35 -9.3 -0.65 -9.25 L1.1 -9.4 Q2.0 -9.65 2.95 -10.6 3.8 -11.55 3.8 -13.15 3.8 -14.65 2.75 -15.8 1.65 -16.9 0.1 -16.9" fill="#ffffff" fill-opacity="0.7019608" fill-rule="evenodd" stroke="none"/>
    <path d="M-6.55 -18.45 L-6.55 -18.5 -6.1 -18.85 -6.15 -18.8 -6.55 -18.45" fill="url(#gradient2)" fill-rule="evenodd" stroke="none"/>
  </g>
  <defs>
    <radialGradient cx="0" cy="0" gradientTransform="matrix(0.0206, 0.0, 0.0, 0.0206, -0.25, -14.95)" gradientUnits="userSpaceOnUse" id="gradient0" r="819.2" spreadMethod="pad">
      <stop offset="0.3607843137254902" stop-color="#4ef9f9"/>
      <stop offset="1.0" stop-color="#0d5987"/>
    </radialGradient>
    <radialGradient cx="0" cy="0" gradientTransform="matrix(0.0135, -0.0051, 0.0058, 0.0154, 3.35, -15.2)" gradientUnits="userSpaceOnUse" id="gradient1" r="819.2" spreadMethod="pad">
      <stop offset="0.4588235294117647" stop-color="#9ad7f3"/>
      <stop offset="0.9490196078431372" stop-color="#00ade6"/>
    </radialGradient>
    <radialGradient cx="0" cy="0" gradientTransform="matrix(0.0192, 0.0, 0.0, 0.0192, 4.45, -21.3)" gradientUnits="userSpaceOnUse" id="gradient2" r="819.2" spreadMethod="pad">
      <stop offset="0.17254901960784313" stop-color="#9ad7f3"/>
      <stop offset="0.9490196078431372" stop-color="#00ade6"/>
    </radialGradient>
  </defs>
</svg>
