<?xml version="1.0" encoding="UTF-8" standalone="no"?>
<svg xmlns:xlink="http://www.w3.org/1999/xlink" height="30.0px" width="30.0px" xmlns="http://www.w3.org/2000/svg">
  <g transform="matrix(1.0, 0.0, 0.0, 1.0, 15.0, 30.0)">
    <path d="M11.55 -24.55 L11.55 -24.5 Q15.0 -20.45 15.0 -14.95 14.95 -8.8 10.55 -4.4 6.2 -0.05 0.0 0.0 L-1.5 -0.05 -1.55 -0.05 Q-5.2 -0.45 -8.2 -2.5 -8.7 -2.75 -9.1 -3.15 L-9.4 -3.35 -10.6 -4.45 Q-14.1 -8.25 -14.7 -12.05 L-15.0 -15.0 Q-15.0 -21.25 -10.6 -25.65 -6.25 -30.0 -0.1 -30.0 6.15 -30.0 10.55 -25.65 L11.55 -24.55" fill="#ffffff" fill-rule="evenodd" stroke="none"/>
    <path d="M12.6 -14.95 Q12.6 -12.2 11.6 -9.8 10.65 -7.7 8.85 -5.9 5.05 -2.1 -0.25 -2.1 -5.55 -2.1 -9.3 -5.9 -10.55 -7.15 -11.45 -8.55 -13.1 -11.4 -13.1 -14.95 -13.1 -20.3 -9.3 -24.1 -5.55 -27.85 -0.25 -27.85 5.05 -27.85 8.85 -24.1 12.6 -20.3 12.6 -14.95" fill="url(#gradient0)" fill-rule="evenodd" stroke="none"/>
    <path d="M6.95 -22.05 Q6.25 -21.4 5.15 -21.15 4.0 -20.95 2.8 -20.15 3.25 -21.25 4.65 -22.65 6.0 -24.05 6.75 -23.45 7.6 -22.8 6.95 -22.05 M6.7 -19.05 L4.15 -19.25 Q5.1 -20.0 7.05 -20.55 8.9 -21.1 9.25 -20.2 9.55 -19.2 8.75 -18.9 L6.7 -19.05 M3.1 -23.3 Q2.9 -22.4 2.0 -21.6 1.15 -20.85 0.45 -19.55 0.35 -20.75 0.85 -22.65 1.3 -24.55 2.3 -24.4 3.3 -24.25 3.1 -23.3 M1.15 -18.1 Q1.65 -17.6 1.65 -16.95 1.65 -16.25 1.15 -15.75 L0.7 -15.35 0.7 -15.15 1.9 -14.9 1.9 -10.55 1.2 -10.55 0.9 -10.55 0.9 -13.25 0.7 -13.25 0.7 -8.2 -0.9 -8.2 -0.9 -13.25 -1.2 -13.25 -1.2 -10.55 -1.45 -10.55 -2.15 -10.55 -2.15 -14.9 -0.9 -15.15 -0.9 -15.35 -1.35 -15.65 -1.45 -15.75 Q-1.95 -16.25 -1.95 -16.95 -1.95 -17.6 -1.45 -18.1 -0.9 -18.6 -0.25 -18.6 L-0.15 -18.6 0.0 -18.6 Q0.7 -18.6 1.15 -18.1 M2.55 -15.05 L1.35 -15.35 Q3.2 -16.65 3.75 -17.85 6.25 -19.7 8.55 -17.4 9.3 -16.25 8.1 -15.8 7.45 -15.65 6.65 -16.5 5.85 -17.35 5.35 -17.2 6.7 -16.4 6.95 -14.2 7.2 -12.05 6.2 -12.05 5.1 -12.15 5.15 -13.35 5.35 -15.75 4.8 -16.5 5.0 -13.7 4.15 -12.8 3.35 -11.95 2.55 -12.95 2.0 -13.6 2.7 -14.2 3.45 -14.7 3.45 -15.45 L2.55 -15.05 M7.25 -15.45 Q8.2 -15.1 8.95 -14.1 9.6 -13.0 9.35 -12.05 9.0 -11.05 8.15 -11.95 7.75 -12.45 7.75 -13.55 7.75 -14.6 7.25 -15.45 M4.85 -9.3 Q4.15 -9.1 3.95 -9.75 3.85 -10.3 4.25 -11.0 L4.85 -12.55 5.3 -10.75 Q5.5 -9.5 4.85 -9.3 M-4.3 -11.0 L-4.0 -9.75 Q-4.2 -9.1 -4.9 -9.3 -5.6 -9.5 -5.35 -10.75 L-4.9 -12.55 -4.3 -11.0 M-7.15 -14.2 Q-6.9 -16.4 -5.55 -17.2 -6.05 -17.35 -6.85 -16.5 -7.65 -15.65 -8.3 -15.8 -9.5 -16.25 -8.75 -17.4 -6.5 -19.7 -3.95 -17.85 -3.45 -16.65 -1.6 -15.35 L-2.75 -15.05 -3.65 -15.45 Q-3.65 -14.7 -2.9 -14.2 -2.2 -13.6 -2.75 -12.95 -3.5 -11.95 -4.4 -12.8 -5.25 -13.7 -4.95 -16.5 -5.55 -15.75 -5.3 -13.35 -5.3 -12.15 -6.35 -12.05 -7.4 -12.05 -7.15 -14.2 M-9.15 -14.1 L-7.5 -15.45 Q-7.95 -14.6 -8.0 -13.55 -8.0 -12.45 -8.35 -11.95 -9.25 -11.05 -9.55 -12.05 -9.85 -13.0 -9.15 -14.1 M-9.35 -20.2 Q-9.0 -21.15 -7.1 -20.6 -5.2 -20.05 -4.25 -19.3 L-6.8 -19.1 -8.75 -18.9 Q-9.65 -19.25 -9.35 -20.2 M-4.85 -22.6 Q-3.45 -21.15 -2.95 -20.1 -4.2 -20.85 -5.3 -21.1 -6.45 -21.35 -7.1 -22.05 -7.7 -22.75 -6.95 -23.4 -6.2 -24.0 -4.85 -22.6 M-1.3 -23.8 Q-0.8 -21.9 -0.9 -20.65 -1.6 -22.0 -2.45 -22.75 -3.3 -23.5 -3.55 -24.4 -3.75 -25.35 -2.75 -25.55 -1.75 -25.7 -1.3 -23.8 M4.4 -6.5 Q5.15 -6.2 5.1 -6.0 2.65 -4.4 -0.25 -4.4 -3.1 -4.4 -5.5 -6.0 L-4.85 -6.5 Q-2.9 -7.3 -0.25 -7.4 L-0.2 -7.4 Q2.5 -7.3 4.4 -6.5" fill="#ffffff" fill-rule="evenodd" stroke="none"/>
  </g>
  <defs>
    <radialGradient cx="0" cy="0" gradientTransform="matrix(0.0206, 0.0, 0.0, 0.0206, -0.25, -14.95)" gradientUnits="userSpaceOnUse" id="gradient0" r="819.2" spreadMethod="pad">
      <stop offset="0.3607843137254902" stop-color="#999999"/>
      <stop offset="1.0" stop-color="#333333"/>
    </radialGradient>
  </defs>
</svg>
