<?xml version="1.0" encoding="UTF-8" standalone="no"?>
<svg xmlns:xlink="http://www.w3.org/1999/xlink" height="30.0px" width="30.0px" xmlns="http://www.w3.org/2000/svg">
  <g transform="matrix(1.0, 0.0, 0.0, 1.0, 15.0, 30.0)">
    <path d="M10.55 -4.4 Q6.2 -0.05 0.0 0.0 L-1.5 -0.05 -1.55 -0.05 Q-5.2 -0.45 -8.2 -2.5 -8.7 -2.75 -9.1 -3.15 L-9.4 -3.35 -10.6 -4.45 Q-14.1 -8.25 -14.7 -12.05 L-15.0 -15.0 Q-15.0 -21.25 -10.6 -25.65 -6.25 -30.0 -0.1 -30.0 6.15 -30.0 10.55 -25.65 L11.55 -24.55 11.55 -24.5 Q15.0 -20.45 15.0 -14.95 14.95 -8.8 10.55 -4.4" fill="#ffffff" fill-rule="evenodd" stroke="none"/>
    <path d="M11.6 -9.8 Q10.65 -7.7 8.85 -5.9 5.05 -2.1 -0.25 -2.1 -5.55 -2.1 -9.3 -5.9 -10.55 -7.15 -11.45 -8.55 -13.1 -11.4 -13.1 -14.95 -13.1 -20.3 -9.3 -24.1 -5.55 -27.85 -0.25 -27.85 5.05 -27.85 8.85 -24.1 12.6 -20.3 12.6 -14.95 12.6 -12.2 11.6 -9.8" fill="url(#gradient0)" fill-rule="evenodd" stroke="none"/>
    <path d="M3.05 -13.15 Q1.65 -12.05 -0.1 -12.05 -2.1 -12.05 -3.6 -13.35 L-3.95 -13.7 Q-5.5 -15.25 -5.5 -17.45 -5.5 -19.7 -3.95 -21.25 -2.35 -22.85 -0.1 -22.85 2.05 -22.85 3.65 -21.25 5.3 -19.7 5.3 -17.45 5.3 -15.25 3.65 -13.7 L3.05 -13.15 M3.55 -12.5 Q4.4 -11.45 4.4 -10.05 L4.4 -3.85 Q2.3 -2.9 -0.1 -2.9 -2.8 -2.9 -5.1 -4.0 L-5.1 -10.05 Q-5.1 -11.6 -4.1 -12.7 -2.4 -11.25 -0.1 -11.25 1.95 -11.25 3.55 -12.5" fill="#ffffff" fill-rule="evenodd" stroke="none"/>
  </g>
  <defs>
    <radialGradient cx="0" cy="0" gradientTransform="matrix(0.0206, 0.0, 0.0, 0.0206, -0.25, -14.95)" gradientUnits="userSpaceOnUse" id="gradient0" r="819.2" spreadMethod="pad">
      <stop offset="0.34509803921568627" stop-color="#29cdd1"/>
      <stop offset="1.0" stop-color="#001c1c"/>
    </radialGradient>
  </defs>
</svg>
