<?xml version="1.0" encoding="UTF-8" standalone="no"?>
<svg xmlns:xlink="http://www.w3.org/1999/xlink" height="30.0px" width="30.0px" xmlns="http://www.w3.org/2000/svg">
  <g transform="matrix(1.0, 0.0, 0.0, 1.0, 15.0, 30.0)">
    <path d="M11.55 -24.55 L11.55 -24.5 Q15.0 -20.45 15.0 -14.95 14.95 -8.8 10.55 -4.4 6.2 -0.05 0.0 0.0 L-1.5 -0.05 -1.55 -0.05 Q-5.2 -0.45 -8.2 -2.5 -8.7 -2.75 -9.1 -3.15 L-9.4 -3.35 -10.6 -4.45 Q-14.1 -8.25 -14.7 -12.05 L-15.0 -15.0 Q-15.0 -21.25 -10.6 -25.65 -6.25 -30.0 -0.1 -30.0 6.15 -30.0 10.55 -25.65 L11.55 -24.55" fill="#ffffff" fill-rule="evenodd" stroke="none"/>
    <path d="M8.85 -5.9 Q5.05 -2.1 -0.25 -2.1 -5.55 -2.1 -9.3 -5.9 -10.55 -7.15 -11.45 -8.55 -13.1 -11.4 -13.1 -14.95 -13.1 -20.3 -9.3 -24.1 -5.55 -27.85 -0.25 -27.85 5.05 -27.85 8.85 -24.1 12.6 -20.3 12.6 -14.95 12.6 -12.2 11.6 -9.8 10.65 -7.7 8.85 -5.9" fill="url(#gradient0)" fill-rule="evenodd" stroke="none"/>
    <path d="M8.65 -14.4 L8.75 -20.05 Q3.65 -22.5 -0.1 -25.45 -3.9 -22.5 -8.95 -20.05 L-8.95 -14.4 Q-8.75 -10.65 -6.2 -8.05 -3.65 -5.7 -0.1 -3.9 3.35 -5.7 5.9 -8.05 8.5 -10.65 8.65 -14.4 M9.75 -20.4 L9.65 -14.4 9.65 -14.35 Q9.5 -10.25 6.6 -7.35 L6.6 -7.3 Q3.9 -4.8 0.15 -2.9 L-0.1 -2.85 -0.15 -2.85 -0.35 -2.9 Q-4.2 -4.8 -6.9 -7.3 L-6.9 -7.35 Q-9.75 -10.25 -9.95 -14.35 L-9.95 -14.4 -9.95 -20.4 -9.85 -20.65 -9.65 -20.85 Q-4.45 -23.35 -0.55 -26.4 L-0.5 -26.5 -0.15 -26.65 0.2 -26.5 Q4.1 -23.4 9.5 -20.85 L9.7 -20.65 9.75 -20.4" fill="#ffffff" fill-rule="evenodd" stroke="none"/>
    <path d="M-1.5 -19.6 L-1.25 -19.9 Q-0.65 -20.45 0.15 -20.45 L4.25 -20.45 Q5.05 -20.45 5.65 -19.9 6.2 -19.25 6.2 -18.45 6.2 -17.65 5.65 -17.1 5.05 -16.5 4.25 -16.5 L2.5 -16.5 0.15 -16.5 Q-0.65 -16.5 -1.25 -17.1 -1.8 -17.65 -1.8 -18.45 L-1.5 -19.6 M2.5 -16.25 L4.25 -16.25 Q5.05 -16.25 5.65 -15.65 6.2 -15.05 6.2 -14.25 6.2 -13.45 5.65 -12.85 5.05 -12.25 4.25 -12.25 L2.5 -12.25 0.15 -12.25 Q-0.65 -12.25 -1.25 -12.85 -1.8 -13.45 -1.8 -14.25 -1.8 -15.05 -1.25 -15.65 -0.65 -16.25 0.15 -16.25 L2.5 -16.25 M2.5 -12.0 L4.25 -12.0 Q5.05 -12.0 5.65 -11.45 6.2 -10.8 6.2 -10.0 6.2 -9.2 5.65 -8.65 5.05 -8.05 4.25 -8.05 L0.15 -8.05 -0.85 -8.3 -1.25 -8.65 Q-1.8 -9.2 -1.8 -10.0 -1.8 -10.8 -1.25 -11.45 -0.65 -12.0 0.15 -12.0 L2.5 -12.0 M-6.15 -18.15 L-6.15 -20.0 Q-6.15 -20.8 -5.55 -21.4 -5.0 -22.0 -4.2 -22.0 -3.35 -22.0 -2.75 -21.4 -2.2 -20.8 -2.2 -20.0 L-2.2 -19.6 -2.2 -15.95 Q-2.2 -15.1 -2.75 -14.55 -3.35 -13.95 -4.2 -13.95 -5.0 -13.95 -5.55 -14.55 -6.15 -15.1 -6.15 -15.95 L-6.15 -18.15" fill="#ffffff" fill-rule="evenodd" stroke="none"/>
    <path d="M-1.5 -19.6 L-1.8 -18.45 Q-1.8 -17.65 -1.25 -17.1 -0.65 -16.5 0.15 -16.5 L2.5 -16.5 2.5 -16.25 0.15 -16.25 Q-0.65 -16.25 -1.25 -15.65 -1.8 -15.05 -1.8 -14.25 -1.8 -13.45 -1.25 -12.85 -0.65 -12.25 0.15 -12.25 L2.5 -12.25 2.5 -12.0 0.15 -12.0 Q-0.65 -12.0 -1.25 -11.45 -1.8 -10.8 -1.8 -10.0 -1.8 -9.2 -1.25 -8.65 L-0.85 -8.3 -3.9 -8.3 Q-6.25 -8.3 -6.25 -10.7 L-6.25 -17.2 -6.15 -18.15 -6.15 -15.95 Q-6.15 -15.1 -5.55 -14.55 -5.0 -13.95 -4.2 -13.95 -3.35 -13.95 -2.75 -14.55 -2.2 -15.1 -2.2 -15.95 L-2.2 -19.6 -1.5 -19.6" fill="#ffffff" fill-opacity="0.5019608" fill-rule="evenodd" stroke="none"/>
  </g>
  <defs>
    <radialGradient cx="0" cy="0" gradientTransform="matrix(0.0206, 0.0, 0.0, 0.0206, -0.25, -14.95)" gradientUnits="userSpaceOnUse" id="gradient0" r="819.2" spreadMethod="pad">
      <stop offset="0.3607843137254902" stop-color="#54e32d"/>
      <stop offset="1.0" stop-color="#005234"/>
    </radialGradient>
  </defs>
</svg>
