<?xml version="1.0" encoding="UTF-8" standalone="no"?>
<svg xmlns:xlink="http://www.w3.org/1999/xlink" height="30.0px" width="30.0px" xmlns="http://www.w3.org/2000/svg">
  <g transform="matrix(1.0, 0.0, 0.0, 1.0, 15.0, 30.0)">
    <path d="M11.55 -24.55 L11.55 -24.5 Q15.0 -20.45 15.0 -14.95 14.95 -8.8 10.55 -4.4 6.2 -0.05 0.0 0.0 L-1.5 -0.05 -1.55 -0.05 Q-5.2 -0.45 -8.2 -2.5 -8.7 -2.75 -9.1 -3.15 L-9.4 -3.35 -10.6 -4.45 Q-14.1 -8.25 -14.7 -12.05 L-15.0 -15.0 Q-15.0 -21.25 -10.6 -25.65 -6.25 -30.0 -0.1 -30.0 6.15 -30.0 10.55 -25.65 L11.55 -24.55" fill="#ffffff" fill-rule="evenodd" stroke="none"/>
    <path d="M8.85 -5.9 Q5.05 -2.1 -0.25 -2.1 -5.55 -2.1 -9.3 -5.9 -10.55 -7.15 -11.45 -8.55 -13.1 -11.4 -13.1 -14.95 -13.1 -20.3 -9.3 -24.1 -5.55 -27.85 -0.25 -27.85 5.05 -27.85 8.85 -24.1 12.6 -20.3 12.6 -14.95 12.6 -12.2 11.6 -9.8 10.65 -7.7 8.85 -5.9" fill="url(#gradient0)" fill-rule="evenodd" stroke="none"/>
    <path d="M8.15 -19.1 L8.1 -19.05 Q8.65 -18.3 5.7 -12.95 4.5 -12.25 3.8 -13.5 L2.7 -15.4 -4.7 -11.15 -5.1 -11.1 -5.4 -11.35 -5.45 -11.75 -5.2 -12.05 2.15 -16.3 1.1 -18.15 Q0.4 -19.35 1.6 -20.1 7.75 -19.95 8.05 -19.15 L8.15 -19.1 M-7.65 -13.95 Q-8.6 -14.45 -7.9 -14.9 L-5.6 -16.25 -3.85 -16.1 -2.35 -15.35 Q-1.35 -14.8 -2.05 -14.35 L-4.4 -13.0 -6.1 -13.1 -7.65 -13.95 M-0.5 -10.3 Q-0.55 -9.25 -1.3 -8.8 L-3.6 -7.45 Q-4.3 -7.0 -4.25 -8.15 L-4.25 -9.9 Q-4.2 -11.05 -3.45 -11.45 L-1.15 -12.8 Q-0.4 -13.25 -0.45 -12.1 L-0.5 -10.3" fill="#ffffff" fill-rule="evenodd" stroke="none"/>
    <path d="M8.75 -14.4 L8.85 -20.05 Q3.75 -22.5 0.0 -25.45 -3.8 -22.5 -8.85 -20.05 L-8.85 -14.4 Q-8.65 -10.65 -6.1 -8.05 -3.55 -5.7 0.0 -3.9 3.45 -5.7 6.0 -8.05 8.6 -10.65 8.75 -14.4 M9.8 -20.65 L9.85 -20.4 9.75 -14.4 9.75 -14.35 Q9.6 -10.25 6.7 -7.35 L6.7 -7.3 Q4.0 -4.8 0.25 -2.9 L0.0 -2.85 -0.05 -2.85 -0.25 -2.9 Q-4.1 -4.8 -6.8 -7.3 L-6.8 -7.35 Q-9.65 -10.25 -9.85 -14.35 L-9.85 -14.4 -9.85 -20.4 -9.75 -20.65 -9.55 -20.85 Q-4.35 -23.35 -0.45 -26.4 L-0.4 -26.5 -0.05 -26.65 0.3 -26.5 Q4.2 -23.4 9.6 -20.85 L9.8 -20.65" fill="#ffffff" fill-rule="evenodd" stroke="none"/>
  </g>
  <defs>
    <radialGradient cx="0" cy="0" gradientTransform="matrix(0.0206, 0.0, 0.0, 0.0206, -0.25, -14.95)" gradientUnits="userSpaceOnUse" id="gradient0" r="819.2" spreadMethod="pad">
      <stop offset="0.3607843137254902" stop-color="#54e32d"/>
      <stop offset="1.0" stop-color="#005234"/>
    </radialGradient>
  </defs>
</svg>
