<?xml version="1.0" encoding="UTF-8" standalone="no"?>
<svg xmlns:xlink="http://www.w3.org/1999/xlink" height="30.0px" width="30.0px" xmlns="http://www.w3.org/2000/svg">
  <g transform="matrix(1.0, 0.0, 0.0, 1.0, 15.0, 30.0)">
    <path d="M10.55 -4.4 Q6.2 -0.05 0.0 0.0 L-1.5 -0.05 -1.55 -0.05 Q-5.2 -0.45 -8.2 -2.5 -8.7 -2.75 -9.1 -3.15 L-9.4 -3.35 -10.6 -4.45 Q-14.1 -8.25 -14.7 -12.05 L-15.0 -15.0 Q-15.0 -21.25 -10.6 -25.65 -6.25 -30.0 -0.1 -30.0 6.15 -30.0 10.55 -25.65 L11.55 -24.55 11.55 -24.5 Q15.0 -20.45 15.0 -14.95 14.95 -8.8 10.55 -4.4" fill="#ffffff" fill-rule="evenodd" stroke="none"/>
    <path d="M8.85 -5.9 Q5.05 -2.1 -0.25 -2.1 -5.55 -2.1 -9.3 -5.9 -10.55 -7.15 -11.45 -8.55 -13.1 -11.4 -13.1 -14.95 -13.1 -20.3 -9.3 -24.1 -5.55 -27.85 -0.25 -27.85 5.05 -27.85 8.85 -24.1 12.6 -20.3 12.6 -14.95 12.6 -12.2 11.6 -9.8 10.65 -7.7 8.85 -5.9" fill="url(#gradient0)" fill-rule="evenodd" stroke="none"/>
    <path d="M0.15 -23.85 L0.15 -23.9 0.2 -23.85 Q3.55 -21.2 8.1 -19.05 L8.05 -13.95 Q7.9 -10.6 5.6 -8.3 3.35 -6.15 0.2 -4.6 L0.15 -4.6 Q-3.0 -6.15 -5.25 -8.3 -7.55 -10.6 -7.7 -13.95 L-7.7 -19.05 Q-3.2 -21.2 0.15 -23.85 M1.1 -21.35 Q0.7 -21.75 0.15 -21.75 -0.4 -21.75 -0.75 -21.35 -1.15 -21.0 -1.15 -20.45 -1.15 -19.95 -0.75 -19.55 -0.4 -19.2 0.15 -19.2 0.7 -19.2 1.1 -19.55 1.45 -19.95 1.45 -20.45 1.45 -21.0 1.1 -21.35 M6.7 -18.7 Q6.3 -19.1 5.8 -19.1 5.25 -19.1 4.85 -18.7 4.45 -18.35 4.45 -17.8 4.45 -17.3 4.8 -16.95 5.15 -16.6 5.7 -16.6 6.25 -16.6 6.65 -16.95 L7.05 -17.8 Q7.05 -18.35 6.7 -18.7 M4.75 -15.75 Q2.1 -16.95 0.15 -18.45 -1.8 -16.95 -4.4 -15.75 L-4.45 -12.85 Q-4.4 -10.9 -3.05 -9.55 -1.75 -8.25 0.15 -7.3 2.05 -8.25 3.35 -9.55 4.7 -10.9 4.75 -12.85 L4.75 -15.75 M-5.35 -19.1 Q-5.9 -19.1 -6.25 -18.7 -6.65 -18.35 -6.6 -17.8 -6.6 -17.3 -6.2 -16.95 -5.8 -16.6 -5.3 -16.6 -4.75 -16.6 -4.4 -16.95 -4.05 -17.3 -4.05 -17.8 -4.05 -18.35 -4.4 -18.7 -4.8 -19.1 -5.35 -19.1" fill="#ffffff" fill-rule="evenodd" stroke="none"/>
  </g>
  <defs>
    <radialGradient cx="0" cy="0" gradientTransform="matrix(0.0206, 0.0, 0.0, 0.0206, -0.25, -14.95)" gradientUnits="userSpaceOnUse" id="gradient0" r="819.2" spreadMethod="pad">
      <stop offset="0.3607843137254902" stop-color="#54e32d"/>
      <stop offset="1.0" stop-color="#005234"/>
    </radialGradient>
  </defs>
</svg>
