<?xml version="1.0" encoding="UTF-8" standalone="no"?>
<svg xmlns:xlink="http://www.w3.org/1999/xlink" height="30.0px" width="30.0px" xmlns="http://www.w3.org/2000/svg">
  <g transform="matrix(1.0, 0.0, 0.0, 1.0, 15.0, 30.0)">
    <path d="M10.55 -4.4 Q6.2 -0.05 0.0 0.0 L-1.5 -0.05 -1.55 -0.05 Q-5.2 -0.45 -8.2 -2.5 -8.7 -2.75 -9.1 -3.15 L-9.4 -3.35 -10.6 -4.45 Q-14.1 -8.25 -14.7 -12.05 L-15.0 -15.0 Q-15.0 -21.25 -10.6 -25.65 -6.25 -30.0 -0.1 -30.0 6.15 -30.0 10.55 -25.65 L11.55 -24.55 11.55 -24.5 Q15.0 -20.45 15.0 -14.95 14.95 -8.8 10.55 -4.4" fill="#ffffff" fill-rule="evenodd" stroke="none"/>
    <path d="M11.6 -9.8 Q10.65 -7.7 8.85 -5.9 5.05 -2.1 -0.25 -2.1 -5.55 -2.1 -9.3 -5.9 -10.55 -7.15 -11.45 -8.55 -13.1 -11.4 -13.1 -14.95 -13.1 -20.3 -9.3 -24.1 -5.55 -27.85 -0.25 -27.85 5.05 -27.85 8.85 -24.1 12.6 -20.3 12.6 -14.95 12.6 -12.2 11.6 -9.8" fill="url(#gradient0)" fill-rule="evenodd" stroke="none"/>
    <path d="M4.65 -8.65 L0.45 -4.45 Q-1.0 -3.0 -2.5 -3.8 L-3.35 -4.45 -8.45 -9.55 -9.15 -10.45 Q-9.9 -11.9 -8.45 -13.35 L-4.25 -17.55 Q-2.8 -19.0 -1.4 -18.2 L-0.5 -17.5 4.6 -12.4 5.25 -11.55 Q6.1 -10.1 4.65 -8.65" fill="#ffffff" fill-opacity="0.5019608" fill-rule="evenodd" stroke="none"/>
    <path d="M-8.95 -15.65 Q-8.1 -15.6 -7.45 -14.95 L-4.25 -11.75 Q-3.6 -11.1 -3.55 -10.25 -3.6 -9.3 -4.25 -8.65 -4.9 -8.0 -5.75 -8.05 -6.7 -8.0 -7.35 -8.65 L-10.55 -11.85 Q-11.2 -12.5 -11.15 -13.45 -11.25 -14.35 -10.6 -15.0 -9.95 -15.65 -8.95 -15.65" fill="#ffffff" fill-rule="evenodd" stroke="none"/>
    <path d="M6.05 -13.6 Q7.0 -13.4 7.5 -12.7 8.05 -11.95 7.95 -11.15 7.85 -10.2 7.15 -9.65 L4.65 -7.75 Q4.1 -7.35 3.6 -7.35 L3.0 -7.35 Q2.15 -7.4 1.55 -8.2 0.95 -8.95 1.1 -9.8 1.3 -10.75 1.95 -11.25 L4.45 -13.15 Q5.15 -13.7 6.05 -13.6" fill="#ffffff" fill-rule="evenodd" stroke="none"/>
    <path d="M0.75 -25.05 Q1.35 -25.8 2.2 -25.85 3.1 -25.95 3.85 -25.35 4.55 -24.8 4.65 -23.95 4.75 -23.0 4.2 -22.3 L-0.65 -16.05 Q-1.05 -15.6 -1.5 -15.4 L-2.1 -15.3 Q-3.0 -15.15 -3.7 -15.7 -4.4 -16.25 -4.55 -17.2 -4.65 -18.1 -4.1 -18.8 L0.75 -25.05" fill="#ffffff" fill-rule="evenodd" stroke="none"/>
    <path d="M8.95 -19.15 Q8.9 -18.2 8.2 -17.6 L2.25 -12.45 Q1.8 -12.05 1.2 -11.95 L0.6 -11.9 Q-0.25 -11.95 -0.85 -12.65 -1.4 -13.3 -1.45 -14.25 -1.35 -15.15 -0.65 -15.75 L5.3 -20.9 Q6.0 -21.55 6.9 -21.5 7.75 -21.45 8.4 -20.7 9.0 -20.0 8.95 -19.15" fill="#ffffff" fill-rule="evenodd" stroke="none"/>
  </g>
  <defs>
    <radialGradient cx="0" cy="0" gradientTransform="matrix(0.0206, 0.0, 0.0, 0.0206, -0.25, -14.95)" gradientUnits="userSpaceOnUse" id="gradient0" r="819.2" spreadMethod="pad">
      <stop offset="0.34509803921568627" stop-color="#29cdd1"/>
      <stop offset="1.0" stop-color="#001c1c"/>
    </radialGradient>
  </defs>
</svg>
