<?xml version="1.0" encoding="UTF-8" standalone="no"?>
<svg xmlns:xlink="http://www.w3.org/1999/xlink" height="30.0px" width="30.0px" xmlns="http://www.w3.org/2000/svg">
  <g transform="matrix(1.0, 0.0, 0.0, 1.0, 15.0, 30.0)">
    <path d="M11.55 -24.55 L11.55 -24.5 Q15.0 -20.45 15.0 -14.95 14.95 -8.8 10.55 -4.4 6.2 -0.05 0.0 0.0 L-1.5 -0.05 -1.55 -0.05 Q-5.2 -0.45 -8.2 -2.5 -8.7 -2.75 -9.1 -3.15 L-9.4 -3.35 -10.6 -4.45 Q-14.1 -8.25 -14.7 -12.05 L-15.0 -15.0 Q-15.0 -21.25 -10.6 -25.65 -6.25 -30.0 -0.1 -30.0 6.15 -30.0 10.55 -25.65 L11.55 -24.55" fill="#ffffff" fill-rule="evenodd" stroke="none"/>
    <path d="M11.6 -9.8 Q10.65 -7.7 8.85 -5.9 5.05 -2.1 -0.25 -2.1 -5.55 -2.1 -9.3 -5.9 -10.55 -7.15 -11.45 -8.55 -13.1 -11.4 -13.1 -14.95 -13.1 -20.3 -9.3 -24.1 -5.55 -27.85 -0.25 -27.85 5.05 -27.85 8.85 -24.1 12.6 -20.3 12.6 -14.95 12.6 -12.2 11.6 -9.8" fill="url(#gradient0)" fill-rule="evenodd" stroke="none"/>
    <path d="M5.2 -9.85 Q3.0 -7.6 -0.15 -7.6 -3.3 -7.6 -5.55 -9.85 -7.75 -12.05 -7.75 -15.2 -7.75 -18.35 -5.55 -20.6 -3.3 -22.8 -0.15 -22.8 3.0 -22.8 5.2 -20.6 7.45 -18.35 7.45 -15.2 7.45 -12.05 5.2 -9.85" fill="#ffffff" fill-rule="evenodd" stroke="none"/>
    <path d="M5.5 -25.55 Q5.9 -25.4 5.95 -22.4 5.6 -21.75 5.0 -22.1 L2.75 -23.4 Q2.2 -23.8 2.5 -24.4 5.1 -25.8 5.45 -25.6 L5.5 -25.55 M11.6 -15.45 Q11.7 -15.0 9.15 -13.5 8.45 -13.5 8.45 -14.15 L8.45 -16.8 Q8.45 -17.45 9.15 -17.45 11.7 -15.95 11.65 -15.5 L11.6 -15.45 M6.75 -21.85 Q9.7 -21.8 9.85 -21.35 L9.9 -21.35 Q10.15 -20.95 8.7 -18.4 8.15 -18.05 7.8 -18.6 L6.5 -20.9 Q6.15 -21.5 6.75 -21.85 M0.95 -23.8 L-1.7 -23.85 Q-2.35 -23.85 -2.35 -24.45 -0.85 -27.05 -0.4 -27.0 L-0.35 -26.95 Q0.1 -27.05 1.6 -24.5 1.55 -23.8 0.95 -23.8 M2.8 -7.05 L5.05 -8.35 Q5.65 -8.75 6.0 -8.05 5.95 -5.1 5.55 -4.95 L5.5 -4.9 Q5.15 -4.65 2.55 -6.1 2.25 -6.7 2.8 -7.05 M6.5 -9.7 L7.8 -11.95 Q8.15 -12.55 8.7 -12.2 10.15 -9.6 9.9 -9.2 L9.85 -9.2 Q9.7 -8.8 6.75 -8.75 6.15 -9.1 6.5 -9.7 M0.2 -3.45 L0.15 -3.5 Q-0.3 -3.4 -1.85 -5.95 -1.85 -6.7 -1.15 -6.7 L1.45 -6.65 Q2.15 -6.65 2.15 -5.95 0.6 -3.4 0.2 -3.45 M-7.05 -21.85 Q-6.5 -21.5 -6.85 -20.9 L-8.1 -18.6 Q-8.45 -18.05 -9.05 -18.4 -10.45 -20.95 -10.25 -21.35 L-10.2 -21.35 Q-10.05 -21.8 -7.05 -21.85 M-5.8 -25.55 L-5.75 -25.6 Q-5.45 -25.8 -2.8 -24.4 -2.5 -23.8 -3.1 -23.4 L-5.35 -22.1 Q-5.9 -21.75 -6.25 -22.4 -6.2 -25.4 -5.8 -25.55 M-9.35 -13.0 Q-11.95 -14.55 -11.9 -15.0 L-11.85 -15.0 Q-11.95 -15.45 -9.4 -17.0 -8.7 -17.0 -8.7 -16.3 L-8.75 -13.7 Q-8.75 -13.0 -9.35 -13.0 M-10.25 -9.2 Q-10.45 -9.6 -9.05 -12.2 -8.45 -12.55 -8.1 -11.95 L-6.85 -9.7 Q-6.5 -9.1 -7.05 -8.75 -10.05 -8.8 -10.2 -9.2 L-10.25 -9.2 M-5.4 -8.35 L-3.15 -7.05 Q-2.55 -6.7 -2.9 -6.1 -5.5 -4.65 -5.8 -4.9 L-5.85 -4.95 Q-6.25 -5.1 -6.3 -8.05 -5.95 -8.75 -5.4 -8.35" fill="#ffffff" fill-rule="evenodd" stroke="none"/>
  </g>
  <defs>
    <radialGradient cx="0" cy="0" gradientTransform="matrix(0.0206, 0.0, 0.0, 0.0206, -0.25, -14.95)" gradientUnits="userSpaceOnUse" id="gradient0" r="819.2" spreadMethod="pad">
      <stop offset="0.3607843137254902" stop-color="#ffb908"/>
      <stop offset="1.0" stop-color="#d10e0e"/>
      <stop offset="1.0" stop-color="#c70e0e"/>
    </radialGradient>
  </defs>
</svg>
